<svg xmlns="http://www.w3.org/2000/svg" width="1379" height="1022" viewBox="0 0 1379 1022">
  <g id="Grupo_46" data-name="Grupo 46" transform="translate(2344 -2140.5)">
    <path id="Trazado_1236" data-name="Trazado 1236" d="M735,0h2q54.741,45.387,48.5,117-4.886,46.815-14,93-7.738,35.452-15,71-1.655,19.461-2,39a46.226,46.226,0,0,1-2,12,152.456,152.456,0,0,1-50-55,188.133,188.133,0,0,1-25-104,100.109,100.109,0,0,1,14-41q17.2-28.237,32-58A113.386,113.386,0,0,0,732,16q1.228-8.115,3-16" transform="translate(-2344 2141)" fill="#fe5700" stroke="rgba(0,0,0,0)" stroke-miterlimit="10" stroke-width="1" fill-rule="evenodd"/>
    <path id="Trazado_1237" data-name="Trazado 1237" d="M761,513q-31.738-53.344-92-36.5-37.632,16.145-45.5,56.5-.5,35-1,70-10.821,3.441-21.5,7.5a7.126,7.126,0,0,0-1.5,7.5q11.4,4.872,23,9,.5,35,1,70,8.965,48.465,56.5,61.5,56.1,7.83,81.5-42.5a109.766,109.766,0,0,0,5-20q.5-34.5,1-69l23-9a7.126,7.126,0,0,0-1.5-7.5q-9.408-3.3-19-6a4.594,4.594,0,0,1-2.5-2.5q-.75-33.5-.5-67a138.993,138.993,0,0,0,39.5-54,421.675,421.675,0,0,0,23-85,189.937,189.937,0,0,0-12-83q-6.88-18.148-15.5-35.5a50.759,50.759,0,0,1,22,8A370.6,370.6,0,0,1,912.5,385,277.89,277.89,0,0,1,945,488q-45.827-31.671-92-.5-23.687,19.709-26.5,50.5-.5,32.5-1,65a189.432,189.432,0,0,1-20.5,7.5,13.108,13.108,0,0,0-.5,8.5l21,7q.5,34,1,68,10.02,60.523,71,66,51.988-2.469,70-51,.809-4.543,2-9,.293-37.545,1.5-75a97.836,97.836,0,0,1,35-35,24.72,24.72,0,0,1,.5,12,151.64,151.64,0,0,1-22.5,8.5,7.958,7.958,0,0,0,1,9,210.038,210.038,0,0,1,21.5,7.5q.105,39.047,2,78a72.192,72.192,0,0,0,26.5,40.5q9.9,6.191,20,11.5,26.385,140.355-84,229.5-21.238,15.369-43,30-6.72,2.16-13,4.5h-2q-.924-15-2-30a20.093,20.093,0,0,0-6,1.5q-16.572,9.786-34,18a79.506,79.506,0,0,1-18,3.5q3.016-26.578,7.5-53a211.361,211.361,0,0,0-3.5-57,28.278,28.278,0,0,0,3.5-25A23.76,23.76,0,0,0,845,866.5a7.058,7.058,0,0,1-2-2.5,58.371,58.371,0,0,0-5-9q1.64-11.227,10.5-4a51.723,51.723,0,0,0,1.5,9.5,30.485,30.485,0,0,0,11,0q3.4-26.1-23-24a63.615,63.615,0,0,0-8,4.5,104.857,104.857,0,0,0-30-34q-1,23.979,0,48-2.566-9.12-5-18.5a36.5,36.5,0,0,0-14.5.5q-6.438,36.033-12.5,72a36.875,36.875,0,0,0,12-1,27.442,27.442,0,0,0,2-11h9a218.286,218.286,0,0,1-38.5,66A76.571,76.571,0,0,1,739,975a104.553,104.553,0,0,1-6.5-17q-5.548-27.688-12.5-55,16.211,13.06,29.5-3a20.734,20.734,0,0,0,1.5-15.5,30.485,30.485,0,0,0-11,0,51.723,51.723,0,0,0-1.5,9.5,8.768,8.768,0,0,1-8.5,1.5,9.455,9.455,0,0,1-1.5-2.5q-1-21,0-42,5-6,10,0,.5,4,1,8a18.5,18.5,0,0,0,12,0q1.512-24.987-23.5-22.5A18.318,18.318,0,0,0,715.5,850q-.75,18.993-.5,38a284.671,284.671,0,0,0-24.5-44l-46-56a161.639,161.639,0,0,1-16-30l-4-4a77.154,77.154,0,0,0-21,50q-.75,20.495-.5,41a20.11,20.11,0,0,0-11-8.5q-11.989-.75-24-.5-.25,36,.5,72a60.961,60.961,0,0,0,29.5-2,97.637,97.637,0,0,1-36,47.5q-29.418,17.785-52.5-7.5A81.29,81.29,0,0,1,499,908a20.475,20.475,0,0,0,12.5,0q1-35.5,0-71a25.006,25.006,0,0,0-14,0q-5.052,20.217-11,40-5.465-20.355-9.5-41H463q-.25,36,.5,72a2.259,2.259,0,0,0,1.5,1,158.39,158.39,0,0,0-13,94,15.375,15.375,0,0,1-3,7,26.936,26.936,0,0,1-14,3q-44.706-3.72-73.5-38a173.986,173.986,0,0,1-38-90A358.683,358.683,0,0,1,326,760q10.012.249,20-.5l1.5-1.5q1-22.5,0-45-4.9-.948-9.5-2a590.393,590.393,0,0,1,51.5-122,60.31,60.31,0,0,1,8.5-9.5,2.5,2.5,0,0,1,3,0A21.346,21.346,0,0,1,412.5,596q-1.7,58.234-3.5,116.5.039,23.276,1.5,46.5,3.088,18.06,19.5,25.5a25.714,25.714,0,0,0,22-5A84.465,84.465,0,0,0,467,760q10.512.249,21-.5a4.594,4.594,0,0,0,2.5-2.5q.5-58.5,1-117l1.5-1.5,68-1,1.5-1.5q1-21.5,0-43a4.457,4.457,0,0,0-1.5-2q-34.794-.993-69.5-2-1-33.5,0-67l1.5-1.5q36.609-1.234,73,.5a335.934,335.934,0,0,0,15.5,31,12.411,12.411,0,0,0,4-7,211.727,211.727,0,0,0-5-106q-13.395-44.184-28-88-29.877-104.23,29-195A205.777,205.777,0,0,1,627,111.5l19-8.5q.5,1.75,1,3.5-4.862,35.307-10.5,70.5a226.213,226.213,0,0,0,21,114,622.085,622.085,0,0,0,48,81,422.06,422.06,0,0,1,38,56A206.611,206.611,0,0,1,761,513" transform="translate(-2344 2141)" fill="#fe5700" stroke="rgba(0,0,0,0)" stroke-miterlimit="10" stroke-width="1" fill-rule="evenodd"/>
    <path id="Trazado_1248" data-name="Trazado 1248" d="M914,639a9.034,9.034,0,0,1,7.5,2q1,25.5,0,51-5.081,18.672-24.5,19a236.48,236.48,0,0,1,17-72" transform="translate(-2344 2141)" fill="#fe5700" stroke="rgba(0,0,0,0)" stroke-miterlimit="10" stroke-width="1" fill-rule="evenodd"/>
    <rect id="Rectángulo_1754" data-name="Rectángulo 1754" width="25" height="72.134" transform="translate(-1447 2779.866)" fill="#fe5700" stroke="rgba(0,0,0,0)" stroke-miterlimit="10" stroke-width="1"/>
    <path id="Trazado_1239" data-name="Trazado 1239" d="M838,855a58.371,58.371,0,0,1,5,9q-6.627-2-5-9" transform="translate(-2344 2141)" fill="#ff5700" fill-rule="evenodd"/>
    <rect id="Rectángulo_1746" data-name="Rectángulo 1746" width="5.321" height="9" transform="translate(-1506.321 2996)" fill="none"/>
    <path id="Trazado_1240" data-name="Trazado 1240" d="M642,870a31.193,31.193,0,0,1,3,14h-5q.805-7.029,2-14" transform="translate(-2344 2141)" fill="#ff5700" fill-rule="evenodd"/>
    <rect id="Rectángulo_1747" data-name="Rectángulo 1747" width="5.002" height="14" transform="translate(-1704 3011)" fill="none"/>
    <path id="Trazado_1241" data-name="Trazado 1241" d="M535,472q-45.5-.25-91,.5a9.584,9.584,0,0,1-2,2.5,162.189,162.189,0,0,1,5.5-90A90.057,90.057,0,0,1,477,346.5a4.934,4.934,0,0,1,3-.5q4.535,20.3,7.5,41a168.009,168.009,0,0,0,25,57q11,14.246,22.5,28" transform="translate(-2344 2141)" fill="#ff5700" fill-rule="evenodd"/>
    <rect id="Rectángulo_1748" data-name="Rectángulo 1748" width="96.927" height="129.053" transform="translate(-1905.927 2486.947)" fill="none"/>
    <rect id="Rectángulo_1749" data-name="Rectángulo 1749" width="66" height="62.059" transform="translate(-1302 2536.941)" fill="none"/>
    <rect id="Rectángulo_1750" data-name="Rectángulo 1750" width="167.014" height="288" transform="translate(-2344 2613)" fill="none"/>
    <rect id="Rectángulo_1751" data-name="Rectángulo 1751" width="169.041" height="288.063" transform="translate(-2165.041 2613)" fill="none"/>
    <rect id="Rectángulo_1752" data-name="Rectángulo 1752" width="167.96" height="288.125" transform="translate(-1924.96 2612.937)" fill="none"/>
    <rect id="Rectángulo_1753" data-name="Rectángulo 1753" width="167.309" height="287.962" transform="translate(-1539.98 2613.038)" fill="none"/>
    <rect id="Rectángulo_1755" data-name="Rectángulo 1755" width="191.937" height="288.088" transform="translate(-1360.947 2612.817)" fill="none"/>
    <g id="Grupo_45" data-name="Grupo 45">
      <path id="Trazado_1242" data-name="Trazado 1242" d="M1086,396a12.92,12.92,0,0,1,5,.5,239.5,239.5,0,0,1,16.5,19.5,9.206,9.206,0,0,1,0,6q-21.1,17.928-42.5,35.5a6.5,6.5,0,0,1-5,0,116.514,116.514,0,0,1-18-22.5,10.979,10.979,0,0,1,3-4.5q21.225-16.484,41-34.5" transform="translate(-2344 2141)" fill="#fefffe" fill-rule="evenodd"/>
      <path id="Trazado_1243" data-name="Trazado 1243" d="M0,619v-8q11.012-4.422,22.5-8,.5-64,1-128a9.454,9.454,0,0,1,1.5-2.5q70.5-1,141,0a363.972,363.972,0,0,1,.5,46.5,9.455,9.455,0,0,1-2.5,1.5l-90,1L72.5,523q-1,32,0,64a4.457,4.457,0,0,0,1.5,2q33.936,1.234,68,1.5l1.5,1.5q1,22.5,0,45a9.455,9.455,0,0,1-2.5,1.5l-67,1L72.5,641q-1,33.5,0,67a9.454,9.454,0,0,0,1.5,2.5l91,1,1.5,1.5a363.972,363.972,0,0,1-.5,46.5q-70.5,1-141,0a9.454,9.454,0,0,1-1.5-2.5q-.5-65-1-130Q11.305,622.852,0,619" transform="translate(-2344 2141)" fill="#fefffe" fill-rule="evenodd"/>
      <path id="Trazado_1244" data-name="Trazado 1244" d="M338,711q4.594,1.051,9.5,2,1,22.5,0,45l-1.5,1.5q-9.987.75-20,.5-60,.25-120-.5l-1.5-1.5q-.5-65-1-130a110.984,110.984,0,0,0-22-8,5.484,5.484,0,0,1-2.5-5.5,9.839,9.839,0,0,1,1-4q11.982-3.681,23.5-8.5.5-64,1-128a139.215,139.215,0,0,1,23.5-2l23,.5,1.5,1.5q.5,64,1,128a164.18,164.18,0,0,0,22.5,7.5,9.571,9.571,0,0,1,1,10,140.111,140.111,0,0,0-23.5,8.5q-1,40.5,0,81l1.5,1.5q41.5.75,83,.5" transform="translate(-2344 2141)" fill="#fffefe" fill-rule="evenodd"/>
      <path id="Trazado_1245" data-name="Trazado 1245" d="M535,472q25-.25,50,.5l1.5,1.5q1,22,0,44a4.594,4.594,0,0,1-2.5,2.5,162.587,162.587,0,0,1-18,.5q-36.391-1.734-73-.5l-1.5,1.5q-1,33.5,0,67,34.706,1.008,69.5,2a4.457,4.457,0,0,1,1.5,2q1,21.5,0,43l-1.5,1.5-68,1-1.5,1.5q-.5,58.5-1,117a4.594,4.594,0,0,1-2.5,2.5q-10.488.75-21,.5-11.511.249-23-.5l-1.5-1.5q-.5-65.5-1-131a187.065,187.065,0,0,0-20.5-7.5q-3.92-4.806,0-9.5,10.443-3.065,20.5-7,.75-64,.5-128a9.584,9.584,0,0,0,2-2.5q45.5-.75,91-.5" transform="translate(-2344 2141)" fill="#fffefd" fill-rule="evenodd"/>
      <path id="Trazado_1246" data-name="Trazado 1246" d="M761,513a89.63,89.63,0,0,1,6,22q-.25,33.5.5,67a4.594,4.594,0,0,0,2.5,2.5q9.593,2.7,19,6a7.126,7.126,0,0,1,1.5,7.5l-23,9q-.5,34.5-1,69a109.766,109.766,0,0,1-5,20q-25.4,50.329-81.5,42.5-47.535-13.035-56.5-61.5-.5-35-1-70-11.6-4.128-23-9a7.126,7.126,0,0,1,1.5-7.5q10.679-4.059,21.5-7.5.5-35,1-70,7.867-40.355,45.5-56.5,60.262-16.844,92,36.5" transform="translate(-2344 2141)" fill="#fffefe" fill-rule="evenodd"/>
      <path id="Trazado_1247" data-name="Trazado 1247" d="M945,488q34.161,32.247,24,78.5-15.492.75-31,.5a84.9,84.9,0,0,1-13-.5,4.457,4.457,0,0,1-2-1.5q-1.211-13.929-1.5-28-9.059-21.153-31.5-15.5A23.971,23.971,0,0,0,875.5,537q-1,78.5,0,157,4.991,15.861,21.5,17,19.421-.327,24.5-19,1-25.5,0-51a9.034,9.034,0,0,0-7.5-2,96.215,96.215,0,0,0-14-1.5l-1.5-1.5q-1-22,0-44l1.5-1.5q15.992-.75,32-.5,18.507-.25,37,.5l1.5,1.5q.75,16.492.5,33-1.207,37.455-1.5,75-1.191,4.457-2,9-18.011,48.531-70,51-60.98-5.477-71-66-.5-34-1-68l-21-7a13.108,13.108,0,0,1,.5-8.5,189.432,189.432,0,0,0,20.5-7.5q.5-32.5,1-65,2.814-30.792,26.5-50.5,46.175-31.172,92,.5" transform="translate(-2344 2141)" fill="#fffdfc" fill-rule="evenodd"/>
      <path id="Trazado_1249" data-name="Trazado 1249" d="M1055,757q-10.095-5.31-20-11.5a72.192,72.192,0,0,1-26.5-40.5q-1.905-38.953-2-78a210.038,210.038,0,0,0-21.5-7.5,7.958,7.958,0,0,1-1-9,151.64,151.64,0,0,0,22.5-8.5,24.72,24.72,0,0,0-.5-12q-.6-30.05,1.5-60,11.085-48.086,59.5-57.5,48.06-5.586,74.5,34.5a76.58,76.58,0,0,1,9,28q.495,33.5,1,67,11.43,4.491,23,9a8.758,8.758,0,0,1-1.5,8.5q-10.89,3.462-21.5,7.5-.09,38.054-2,76-9.66,41.667-50.5,54.5a92.7,92.7,0,0,1-44-.5m17-236q22.53-3.374,29.5,18,1.005,77,0,154-8.31,22.282-31.5,16.5a25.536,25.536,0,0,1-14.5-18.5q-1.005-75.5,0-151,3.27-14.005,16.5-19" transform="translate(-2344 2141)" fill="#fffefe" fill-rule="evenodd"/>
      <path id="Trazado_1250" data-name="Trazado 1250" d="M1379,611v8q-9.81,3.687-20,6.5a6.969,6.969,0,0,0-3.5,2.5q-.255,65.5-1.5,131a440.148,440.148,0,0,1-51,.5l-1.5-1.5q-20.025-64.587-40.5-129-1.245,63.995-1.5,128a4.584,4.584,0,0,1-2.5,2.5,348.5,348.5,0,0,1-45.5-.5q-.495-65.5-1-131a6.969,6.969,0,0,0-3.5-2.5q-9.57-2.767-19-6a9.577,9.577,0,0,1,1-10q10.005-3,20-6a9.246,9.246,0,0,0,1.5-2.5q.495-63.5,1-127a170.093,170.093,0,0,1,26-2l25.5.5,1.5,1.5q19.92,64.767,41,129,1.65-64.989,2-130a363.985,363.985,0,0,1,46.5-.5q1.245,64.143,1.5,128.5a9.246,9.246,0,0,0,1.5,2.5,170.721,170.721,0,0,1,22,7.5" transform="translate(-2344 2141)" fill="#fefffe" fill-rule="evenodd"/>
    </g>
    <rect id="Rectángulo_1756" data-name="Rectángulo 1756" width="191.96" height="288.028" transform="translate(-1156.96 2612.986)" fill="none"/>
    <path id="Trazado_1251" data-name="Trazado 1251" d="M689,520q22.355-1.965,29.5,19,1,77,0,154-7.9,22.579-31.5,17.5-13.3-5.34-15.5-19.5-1-76,0-152A29.284,29.284,0,0,1,689,520" transform="translate(-2344 2141)" fill="#ff5904" fill-rule="evenodd"/>
    <path id="Trazado_1252" data-name="Trazado 1252" d="M938,567a194.5,194.5,0,0,1-6,23q-16.008-.25-32,.5l-1.5,1.5q-1,22,0,44l1.5,1.5a96.215,96.215,0,0,1,14,1.5,236.48,236.48,0,0,0-17,72q-16.509-1.138-21.5-17-1-78.5,0-157A23.971,23.971,0,0,1,890,521.5q22.441-5.653,31.5,15.5.289,14.071,1.5,28a4.457,4.457,0,0,0,2,1.5,84.9,84.9,0,0,0,13,.5" transform="translate(-2344 2141)" fill="#ff5701" fill-rule="evenodd"/>
    <rect id="Rectángulo_1757" data-name="Rectángulo 1757" width="63" height="190.692" transform="translate(-1469 2661.308)" fill="none"/>
    <path id="Trazado_1253" data-name="Trazado 1253" d="M362,836q25.53-1.47,24,24H374a11.017,11.017,0,0,0-4-11.5,6.566,6.566,0,0,0-6.5,1.5,132.815,132.815,0,0,0-1.5,22.5q.25,10.25.5,20.5,4.572,5.265,10,1a20.88,20.88,0,0,0,1.5-10h12q2.5,25.746-23,24.5-11.679-4.182-13.5-16.5a380.315,380.315,0,0,1,0-39A22.144,22.144,0,0,1,362,836" transform="translate(-2344 2141)" fill="#fffaf8" fill-rule="evenodd"/>
    <path id="Trazado_1254" data-name="Trazado 1254" d="M418,836q18.318-2.383,23.5,15,1,21.5,0,43-9.375,22.57-30.5,10.5a17.944,17.944,0,0,1-5.5-10.5q-1-22.5,0-45A21.9,21.9,0,0,1,418,836" transform="translate(-2344 2141)" fill="#fff8f5" fill-rule="evenodd"/>
    <path id="Trazado_1255" data-name="Trazado 1255" d="M499,908q.249-11.012-.5-22a192.174,192.174,0,0,0-5.5,23H481q-2.238-9.45-4-19a8.8,8.8,0,0,0-1.5-5,6.587,6.587,0,0,0,.5,6,145.058,145.058,0,0,1-.5,17,29.678,29.678,0,0,1-10.5,1,2.259,2.259,0,0,1-1.5-1q-.75-36-.5-72h14q4.035,20.645,9.5,41,5.947-19.784,11-40a25.006,25.006,0,0,1,14,0q1,35.5,0,71a20.475,20.475,0,0,1-12.5,0" transform="translate(-2344 2141)" fill="#fffbf9" fill-rule="evenodd"/>
    <rect id="Rectángulo_1758" data-name="Rectángulo 1758" width="49.063" height="73.101" transform="translate(-1881.063 2977)" fill="none"/>
    <path id="Trazado_1256" data-name="Trazado 1256" d="M534,836a35.313,35.313,0,0,1,11.5,1q1.241,35.859-.5,71.5a23.3,23.3,0,0,1-11.5-.5q-1.233-36.108.5-72" transform="translate(-2344 2141)" fill="#fff8f4" fill-rule="evenodd"/>
    <path id="Trazado_1257" data-name="Trazado 1257" d="M603,845a5.545,5.545,0,0,1,1.5,3q1,24.5,0,49a29.844,29.844,0,0,1-6.5,9,60.961,60.961,0,0,1-29.5,2q-.75-36-.5-72,12.011-.249,24,.5a20.11,20.11,0,0,1,11,8.5" transform="translate(-2344 2141)" fill="#fffaf7" fill-rule="evenodd"/>
    <rect id="Rectángulo_1759" data-name="Rectángulo 1759" width="37.063" height="73.015" transform="translate(-1776.063 2976.938)" fill="none"/>
    <path id="Trazado_1258" data-name="Trazado 1258" d="M635,836h16l12,73H650q-.807-6.036-2-12H637a63.486,63.486,0,0,1-2,11,43.117,43.117,0,0,1-13,1q6.016-36.6,13-73m7,34q-1.194,6.97-2,14h5a31.193,31.193,0,0,0-3-14" transform="translate(-2344 2141)" fill="#fefffe" fill-rule="evenodd"/>
    <rect id="Rectángulo_1760" data-name="Rectángulo 1760" width="41" height="73.121" transform="translate(-1722 2977)" fill="none"/>
    <path id="Trazado_1259" data-name="Trazado 1259" d="M720,903a16.229,16.229,0,0,1-5-15q-.25-19.007.5-38A18.318,18.318,0,0,1,728,836.5q25.012-2.487,23.5,22.5a18.5,18.5,0,0,1-12,0q-.5-4-1-8-5-6-10,0-1,21,0,42a9.455,9.455,0,0,0,1.5,2.5,8.768,8.768,0,0,0,8.5-1.5,51.723,51.723,0,0,1,1.5-9.5,30.485,30.485,0,0,1,11,0,20.734,20.734,0,0,1-1.5,15.5q-13.289,16.06-29.5,3" transform="translate(-2344 2141)" fill="#fff9f6" fill-rule="evenodd"/>
    <rect id="Rectángulo_1761" data-name="Rectángulo 1761" width="37.089" height="72.582" transform="translate(-1629.233 2977.275)" fill="none"/>
    <path id="Trazado_1260" data-name="Trazado 1260" d="M800,855q4.175,27.051,9,54a84.9,84.9,0,0,1-13-.5,46.2,46.2,0,0,1-2-11.5H782a27.442,27.442,0,0,1-2,11,36.875,36.875,0,0,1-12,1q6.062-35.967,12.5-72a36.5,36.5,0,0,1,14.5-.5q2.434,9.379,5,18.5" transform="translate(-2344 2141)" fill="#fffcfa" fill-rule="evenodd"/>
    <rect id="Rectángulo_1762" data-name="Rectángulo 1762" width="41" height="73.118" transform="translate(-1576 2977.002)" fill="none"/>
    <path id="Trazado_1261" data-name="Trazado 1261" d="M838,855q-1.628,7,5,9a7.058,7.058,0,0,0,2,2.5A23.76,23.76,0,0,1,860.5,879a28.278,28.278,0,0,1-3.5,25q-11.163,8.4-24,2.5-11.091-8.607-8-22.5h13a40.916,40.916,0,0,0,.5,9q5.127,5.8,10,0,2.241-7.539-3.5-12.5-30.8-11.166-15-39.5a63.615,63.615,0,0,1,8-4.5q26.4-2.1,23,24a30.485,30.485,0,0,1-11,0,51.723,51.723,0,0,1-1.5-9.5q-8.86-7.227-10.5,4" transform="translate(-2344 2141)" fill="#fffcfa" fill-rule="evenodd"/>
    <rect id="Rectángulo_1763" data-name="Rectángulo 1763" width="37.622" height="72.592" transform="translate(-1519.674 2977.343)" fill="none"/>
    <path id="Trazado_1262" data-name="Trazado 1262" d="M882,836q18.008-.25,36,.5a15.629,15.629,0,0,1,0,11q-11.488.75-23,.5v18h18a35.313,35.313,0,0,1-1,11.5,145.044,145.044,0,0,1-17,.5v18a141.755,141.755,0,0,1,23.5,1,23.3,23.3,0,0,1-.5,11.5,212.905,212.905,0,0,1-35.5-.5q-.75-36-.5-72" transform="translate(-2344 2141)" fill="#fff9f7" fill-rule="evenodd"/>
    <path id="Trazado_1263" data-name="Trazado 1263" d="M938,836q12.51-.249,25,.5A15.8,15.8,0,0,1,974.5,849a182.411,182.411,0,0,1,0,27,19.146,19.146,0,0,1-9.5,14l10,18a25.006,25.006,0,0,1-14,0q-4.621-8.746-10-17a81.886,81.886,0,0,0-1,18H938Z" transform="translate(-2344 2141)" fill="#fffcfa" fill-rule="evenodd"/>
    <path id="Trazado_1264" data-name="Trazado 1264" d="M1005,836a55.165,55.165,0,0,1,14.5,1q6.42,35.992,12.5,72a36.9,36.9,0,0,1-12-1,39.98,39.98,0,0,1-2-11,36.9,36.9,0,0,0-12,1,37.78,37.78,0,0,1-3,10.5,60.931,60.931,0,0,1-11,.5q4.774-36.868,13-73" transform="translate(-2344 2141)" fill="#fffaf8" fill-rule="evenodd"/>
    <path id="Trazado_1265" data-name="Trazado 1265" d="M421,848a7.128,7.128,0,0,1,7.5,3q1,21,0,42-4.506,5.25-10,1-1-21.5,0-43a10.515,10.515,0,0,0,2.5-3" transform="translate(-2344 2141)" fill="#ff5803" fill-rule="evenodd"/>
    <path id="Trazado_1266" data-name="Trazado 1266" d="M581,848a17.351,17.351,0,0,1,10.5,2q1,22,0,44l-1.5,1.5a40.916,40.916,0,0,1-9,.5Z" transform="translate(-2344 2141)" fill="#ff5802" fill-rule="evenodd"/>
    <path id="Trazado_1267" data-name="Trazado 1267" d="M951,848a17.351,17.351,0,0,1,10.5,2,169.168,169.168,0,0,1,0,26l-1.5,1.5a50.467,50.467,0,0,1-10,.5,233.824,233.824,0,0,1,1-30" transform="translate(-2344 2141)" fill="#ff5c0c" fill-rule="evenodd"/>
    <path id="Trazado_1268" data-name="Trazado 1268" d="M272,866h25a72.369,72.369,0,0,1-.5,12,72.517,72.517,0,0,1-24,0,72.369,72.369,0,0,1-.5-12" transform="translate(-2344 2141)" fill="#fefffe" fill-rule="evenodd"/>
    <rect id="Rectángulo_1764" data-name="Rectángulo 1764" width="25.124" height="13" transform="translate(-2072.062 3007)" fill="none"/>
    <path id="Trazado_1269" data-name="Trazado 1269" d="M1082,866h25a71.825,71.825,0,0,1-.5,12,72.517,72.517,0,0,1-24,0,71.825,71.825,0,0,1-.5-12" transform="translate(-2344 2141)" fill="#fefffe" fill-rule="evenodd"/>
    <rect id="Rectángulo_1765" data-name="Rectángulo 1765" width="25.12" height="13" transform="translate(-1262.06 3007)" fill="none"/>
    <path id="Trazado_1270" data-name="Trazado 1270" d="M787,869a2.64,2.64,0,0,1,2.5,2,121.165,121.165,0,0,1,1.5,13h-6q1.28-7.455,2-15" transform="translate(-2344 2141)" fill="#ff6217" fill-rule="evenodd"/>
    <path id="Trazado_1271" data-name="Trazado 1271" d="M1011,869a2.644,2.644,0,0,1,2,2.5q1.065,6.258,2,12.5h-6a73.539,73.539,0,0,1,2-15" transform="translate(-2344 2141)" fill="#ff6116" fill-rule="evenodd"/>
    <path id="Trazado_1272" data-name="Trazado 1272" d="M477,890a.884.884,0,0,0-1,1,6.587,6.587,0,0,1-.5-6,8.8,8.8,0,0,1,1.5,5" transform="translate(-2344 2141)" fill="#ff8a4d" fill-rule="evenodd"/>
  </g>
</svg>
